<svg width="334" height="41" viewBox="0 0 334 41" fill="none" xmlns="http://www.w3.org/2000/svg">
<path d="M20.1415 3.46985C20.1415 2.54959 20.5071 1.66702 21.1578 1.0163C21.8086 0.365573 22.6911 0 23.6114 0C24.5317 0 25.4142 0.365573 26.065 1.0163C26.7157 1.66702 27.0812 2.54959 27.0812 3.46985C27.0812 4.39012 26.7157 5.27269 26.065 5.92341C25.4142 6.57413 24.5317 6.93971 23.6114 6.93971C22.6911 6.93971 21.8086 6.57413 21.1578 5.92341C20.5071 5.27269 20.1415 4.39012 20.1415 3.46985ZM25.6356 31.9566C25.6356 31.9566 22.1818 35.6629 18.301 35.6629L18.3548 31.7206C18.3548 31.7206 11.2072 32.541 9.26675 30.6006L18.6543 27.5616C18.4315 27.2529 18.3114 26.8819 18.3111 26.5012V22.004C18.3111 21.5397 18.4866 21.0939 18.8035 20.7547L21.4587 17.9095V11.5668L18.2307 12.6427L15.5837 17.5305C15.4922 17.6998 15.3681 17.8494 15.2187 17.9707C15.0693 18.0921 14.8974 18.1827 14.7128 18.2375C14.5283 18.2923 14.3348 18.3101 14.1434 18.29C13.952 18.2699 13.7664 18.2122 13.5973 18.1203C13.2559 17.9352 13.002 17.6222 12.8914 17.2499C12.7808 16.8777 12.8226 16.4768 13.0075 16.1353L15.9312 10.7386C16.108 10.4117 16.4025 10.1643 16.755 10.0466C16.755 10.0466 23.1316 7.94771 23.2896 7.94771H29.5605L34.522 4.3567C34.8371 4.13857 35.2251 4.05256 35.6028 4.11711C35.9805 4.18166 36.3179 4.39163 36.5426 4.702C36.7673 5.01237 36.8615 5.39844 36.8049 5.77742C36.7484 6.15641 36.5456 6.49816 36.24 6.72938L30.8942 10.5986C30.6441 10.7792 30.3435 10.8766 30.035 10.8767H27.198V16.3951L30.9747 16.6936C31.2625 16.7164 31.5409 16.807 31.7871 16.9579C32.0333 17.1088 32.2403 17.3158 32.3912 17.562L35.3609 22.4091L47.9798 18.5182C47.9803 18.5191 47.8514 26.5667 25.6356 31.9566ZM31.7496 23.5238L29.7563 20.2705C29.7563 20.2705 24.867 19.8494 24.7028 19.785C24.6761 19.8165 24.6557 19.8513 24.6286 19.8814L21.9734 22.7266V26.5022C21.9734 26.5148 21.97 26.5269 21.97 26.54L31.7496 23.5238ZM46.5783 32.8434C43.6357 32.8434 42.1034 34.2188 40.872 35.3222C39.8388 36.2488 39.1589 36.8604 37.6226 36.8604C36.0912 36.8604 35.4089 36.2488 34.3757 35.3222C33.1443 34.2188 31.6124 32.8434 28.6698 32.8434C25.7248 32.8434 24.1929 34.2188 22.961 35.3222C21.9298 36.2488 21.2479 36.8604 19.7141 36.8604C18.1779 36.8604 17.496 36.2488 16.4652 35.3222C15.2333 34.2183 13.7015 32.8434 10.7565 32.8434C7.81387 32.8434 6.27957 34.2183 5.0501 35.3222C4.0169 36.2488 3.33505 36.8604 1.7993 36.8604C1.31833 36.8714 0.860783 37.0703 0.524524 37.4143C0.188266 37.7584 0 38.2204 0 38.7015C0 39.1826 0.188266 39.6445 0.524524 39.9886C0.860783 40.3327 1.31833 40.5315 1.7993 40.5425C4.74431 40.5425 6.27618 39.1681 7.50759 38.0637C8.5408 37.1376 9.22313 36.526 10.7569 36.526C12.2908 36.526 12.975 37.1376 14.0063 38.0637C15.2382 39.1681 16.772 40.5425 19.7146 40.5425C22.6572 40.5425 24.1891 39.1681 25.421 38.0637C26.4546 37.1376 27.136 36.526 28.6703 36.526C30.2036 36.526 30.886 37.1376 31.9167 38.0637C33.1491 39.1681 34.6805 40.5425 37.6231 40.5425C40.5681 40.5425 42.1 39.1681 43.3314 38.0637C44.3627 37.1376 45.045 36.526 46.5788 36.526C47.0672 36.526 47.5355 36.3319 47.8807 35.9865C48.226 35.6412 48.4199 35.1728 48.4199 34.6845C48.4198 34.1961 48.2258 33.7278 47.8804 33.3826C47.535 33.0373 47.0667 32.8434 46.5783 32.8434Z" fill="#FAFAFA"/>
<path d="M88.4012 29.2099C88.4012 30.9588 87.5679 32.4609 85.9012 33.716C84.2346 34.9712 82.3313 35.5988 80.1914 35.5988C78.0514 35.5988 76.323 35.0741 75.0062 34.0247C73.7099 32.9547 73.0617 31.8539 73.0617 30.7222C73.0617 29.5905 73.3807 29.0247 74.0185 29.0247C74.5123 29.0247 75.0267 29.2716 75.5617 29.7654C76.0967 30.2593 76.6934 30.7531 77.3519 31.2469C78.0309 31.7407 78.7922 31.9877 79.6358 31.9877C80.4794 31.9877 81.4362 31.6379 82.5062 30.9383C83.5761 30.2387 84.1111 29.6523 84.1111 29.179C84.1111 28.7058 83.5247 27.9136 82.3519 26.8025C81.1996 25.6914 80.037 24.5494 78.8642 23.3765C77.7119 22.1831 77.1358 21.2675 77.1358 20.6296C77.1358 19.9712 77.249 19.2613 77.4753 18.5C77.7222 17.7387 78.0206 17.214 78.3704 16.9259C79.4815 15.8354 80.9115 14.8992 82.6605 14.1173C84.43 13.3148 85.9835 12.9136 87.321 12.9136C88.1029 12.9136 88.751 13.2531 89.2654 13.9321C89.7798 14.5905 90.037 15.2798 90.037 16C90.037 16.2881 89.8004 16.5247 89.3272 16.7099C88.8745 16.8745 88.2058 17.0494 87.321 17.2346C86.4568 17.4198 85.572 17.6872 84.6667 18.037C82.5679 18.8189 81.5185 19.4774 81.5185 20.0123C81.5185 20.2593 81.8786 20.7119 82.5988 21.3704C83.3189 22.0082 84.1008 22.6872 84.9444 23.4074C85.8086 24.107 86.6008 25.0021 87.321 26.0926C88.0412 27.1626 88.4012 28.2016 88.4012 29.2099ZM101.635 20.4753C101.799 19.9609 102.128 19.7037 102.622 19.7037C103.116 19.7037 103.682 20.1255 104.32 20.9691C104.978 21.8128 105.307 22.5432 105.307 23.1605C105.307 23.3868 104.834 24.8992 103.888 27.6975C102.941 30.4959 102.211 32.7078 101.696 34.3333C101.408 35.1975 100.925 35.6296 100.246 35.6296C99.8341 35.6296 99.4843 35.4856 99.1962 35.1975C98.9287 34.8889 98.795 34.4156 98.795 33.7778C98.795 33.1399 98.9185 32.2346 99.1654 31.0617C97.046 34.107 95.3588 35.6296 94.1036 35.6296C93.4452 35.6296 92.653 35.2078 91.7271 34.3642C90.8012 33.5 90.3382 32.6667 90.3382 31.8642C90.3382 29.8889 90.8938 27.3683 92.0049 24.3025C93.1366 21.2366 94.1962 19.7037 95.1839 19.7037C95.7806 19.7037 96.3053 19.9712 96.758 20.5062C97.2312 21.0412 97.4678 21.6276 97.4678 22.2654C97.4678 22.5123 97.2106 23.2016 96.6962 24.3333C95.1324 27.7284 94.3505 30.1255 94.3505 31.5247C94.3505 31.6481 94.402 31.7099 94.5049 31.7099C94.8135 31.7099 95.3896 31.2263 96.2333 30.2593C97.0975 29.2716 98.0543 27.8724 99.1036 26.0617C100.174 24.2305 101.017 22.3683 101.635 20.4753ZM107.509 24.9198L107.324 21.4321C107.324 20.2798 107.684 19.7037 108.404 19.7037C108.815 19.7037 109.217 19.858 109.608 20.1667C110.019 20.4753 110.328 20.9588 110.534 21.6173C111.233 21 111.994 20.5062 112.817 20.1358C113.661 19.7449 114.402 19.5494 115.04 19.5494C116.542 19.5494 117.293 19.9095 117.293 20.6296C117.293 21 117.221 21.2778 117.077 21.463C116.953 21.6276 116.85 21.751 116.768 21.8333C116.706 21.9156 116.583 22.0288 116.398 22.1728C116.233 22.2963 116.11 22.3889 116.027 22.4506C115.554 22.7593 115.215 22.9753 115.009 23.0988C114.083 23.6749 113.291 24.3745 112.632 25.1975C111.974 26 111.48 27.1214 111.151 28.5617C110.595 30.928 110.05 32.6975 109.515 33.8704C109.001 35.0226 108.414 35.5988 107.756 35.5988C107.118 35.5988 106.634 35.2901 106.305 34.6728C105.996 34.0556 105.842 33.4794 105.842 32.9444C105.842 32.3889 106.038 31.5658 106.429 30.4753C106.84 29.3848 107.118 28.4486 107.262 27.6667C107.427 26.8642 107.509 25.9486 107.509 24.9198ZM128.938 17.2346C128.856 16.7613 128.722 16.3292 128.537 15.9383C128.352 15.5473 128.125 15.3519 127.858 15.3519C127.611 15.3519 127.354 15.537 127.086 15.9074C126.839 16.2778 126.592 16.8848 126.345 17.7284C125.954 19.0453 125.563 20.5782 125.173 22.3272C126.736 22.2449 127.909 22.2037 128.691 22.2037C129.494 22.2037 130.09 22.3272 130.481 22.5741C130.872 22.8004 131.068 23.0782 131.068 23.4074C131.068 24.0453 130.491 24.5391 129.339 24.8889C128.187 25.2387 126.52 25.5782 124.339 25.9074C123.31 30.2078 122.59 32.9033 122.179 33.9938C121.767 35.0638 121.315 35.5988 120.821 35.5988C120.43 35.5988 119.967 35.2798 119.432 34.642C118.917 33.9835 118.66 33.4897 118.66 33.1605C118.66 32.8313 118.732 32.4403 118.876 31.9877C119.514 30.1975 119.998 28.4691 120.327 26.8025C119.71 26.9671 119.154 27.0494 118.66 27.0494C118.187 27.0494 117.714 26.8333 117.24 26.4012C116.767 25.9486 116.531 25.4033 116.531 24.7654C116.531 24.0247 118.012 23.3868 120.975 22.8519C121.572 18.9012 122.405 16.0412 123.475 14.2716C124.545 12.4815 126.088 11.5864 128.105 11.5864C129.072 11.5864 129.956 12.0597 130.759 13.0062C131.561 13.9527 131.963 15.0741 131.963 16.3704C131.963 17.214 131.829 17.8827 131.561 18.3765C131.294 18.8498 130.944 19.0864 130.512 19.0864C130.08 19.0864 129.73 18.8909 129.463 18.5C129.216 18.1091 129.041 17.6872 128.938 17.2346ZM144.233 25.4753C144.233 26.4835 143.544 27.3889 142.165 28.1914C140.807 28.9938 139.408 29.3951 137.968 29.3951C136.528 29.3951 135.344 29.2922 134.419 29.0864C134.233 29.642 134.141 30.1975 134.141 30.7531C134.141 31.3086 134.233 31.7099 134.419 31.9568C134.604 32.1831 135.067 32.2963 135.807 32.2963C137.351 32.2963 138.668 32.1523 139.758 31.8642C140.869 31.5761 141.445 31.4321 141.486 31.4321C142.33 31.4321 142.752 31.7099 142.752 32.2654C142.752 33.0679 142.083 33.8292 140.746 34.5494C139.429 35.2695 137.896 35.6296 136.147 35.6296C134.419 35.6296 133.03 35.0844 131.98 33.9938C130.931 32.9033 130.406 31.6173 130.406 30.1358C130.406 28.6337 130.838 27.07 131.702 25.4444C132.587 23.8189 133.688 22.4609 135.005 21.3704C136.322 20.2593 137.628 19.7037 138.925 19.7037C140.242 19.7037 141.456 20.3519 142.567 21.6481C143.678 22.9239 144.233 24.1996 144.233 25.4753ZM140.653 24.9815C140.653 24.7757 140.437 24.4774 140.005 24.0864C139.573 23.6955 139.161 23.5 138.77 23.5C138.4 23.5 137.916 23.7778 137.32 24.3333C136.723 24.8683 136.157 25.5679 135.622 26.4321C135.807 26.4527 136.075 26.463 136.425 26.463C139.244 26.463 140.653 25.9691 140.653 24.9815ZM147.174 24.9198L146.989 21.4321C146.989 20.2798 147.349 19.7037 148.069 19.7037C148.481 19.7037 148.882 19.858 149.273 20.1667C149.684 20.4753 149.993 20.9588 150.199 21.6173C150.898 21 151.66 20.5062 152.483 20.1358C153.326 19.7449 154.067 19.5494 154.705 19.5494C156.207 19.5494 156.958 19.9095 156.958 20.6296C156.958 21 156.886 21.2778 156.742 21.463C156.619 21.6276 156.516 21.751 156.433 21.8333C156.372 21.9156 156.248 22.0288 156.063 22.1728C155.898 22.2963 155.775 22.3889 155.693 22.4506C155.219 22.7593 154.88 22.9753 154.674 23.0988C153.748 23.6749 152.956 24.3745 152.298 25.1975C151.639 26 151.145 27.1214 150.816 28.5617C150.261 30.928 149.715 32.6975 149.18 33.8704C148.666 35.0226 148.079 35.5988 147.421 35.5988C146.783 35.5988 146.3 35.2901 145.97 34.6728C145.662 34.0556 145.507 33.4794 145.507 32.9444C145.507 32.3889 145.703 31.5658 146.094 30.4753C146.505 29.3848 146.783 28.4486 146.927 27.6667C147.092 26.8642 147.174 25.9486 147.174 24.9198ZM160.764 8.77778C161.834 8.77778 162.708 9.15844 163.387 9.91975C164.087 10.6811 164.437 11.7099 164.437 13.0062C164.437 14.3025 163.85 15.7428 162.677 17.3272C161.525 18.9115 160.465 19.7037 159.498 19.7037C158.531 19.7037 158.048 19.2922 158.048 18.4691C158.048 18.0988 158.428 17.3889 159.19 16.3395C159.951 15.2695 160.332 14.3848 160.332 13.6852C160.332 12.965 160.054 12.3786 159.498 11.9259C158.943 11.4733 158.665 11.0412 158.665 10.6296C158.665 10.2181 158.881 9.80658 159.313 9.39506C159.745 8.98354 160.229 8.77778 160.764 8.77778ZM177.355 19.7346C178.137 19.7346 178.909 20.1975 179.67 21.1235C180.431 22.0494 180.812 22.8827 180.812 23.6235C180.812 24.1173 180.596 24.3642 180.164 24.3642C179.917 24.3642 179.557 24.2716 179.084 24.0864C178.61 23.8807 178.127 23.7778 177.633 23.7778C177.16 23.7778 176.45 23.9424 175.503 24.2716C174.577 24.6008 174.114 25.0329 174.114 25.5679C174.114 25.7737 174.392 26.072 174.948 26.463C175.503 26.8539 176.11 27.2551 176.769 27.6667C177.427 28.0782 178.034 28.6543 178.59 29.3951C179.145 30.1152 179.423 30.9074 179.423 31.7716C179.423 32.6152 178.796 33.4691 177.54 34.3333C176.306 35.1975 174.845 35.6296 173.158 35.6296C171.491 35.6296 170.061 35.249 168.868 34.4877C167.674 33.7263 167.077 32.9444 167.077 32.142C167.077 31.3395 167.407 30.9383 168.065 30.9383C168.333 30.9383 168.652 31.0412 169.022 31.2469C170.051 31.8436 171.326 32.142 172.849 32.142C174.392 32.142 175.164 31.9362 175.164 31.5247C175.164 31.1132 174.866 30.6605 174.269 30.1667C173.693 29.6523 173.055 29.179 172.355 28.7469C171.676 28.3148 171.038 27.7901 170.442 27.1728C169.866 26.535 169.577 25.9177 169.577 25.321C169.577 24.2099 170.586 23.0062 172.602 21.7099C174.619 20.393 176.203 19.7346 177.355 19.7346ZM196.385 35.4444C195.912 35.4444 195.346 35.0535 194.687 34.2716C194.029 33.4691 193.7 32.821 193.7 32.3272C193.7 31.8333 193.947 30.8148 194.44 29.2716C195.963 24.5391 196.776 20.393 196.879 16.8333C196.179 16.0926 195.829 15.5062 195.829 15.0741C195.829 14.3951 196.632 13.7572 198.237 13.1605C199.862 12.5432 201.406 12.2346 202.866 12.2346C205.336 12.2346 207.28 12.8107 208.7 13.963C210.14 15.1152 210.86 16.5864 210.86 18.3765C210.86 20.6605 209.739 22.7284 207.496 24.5802C205.274 26.4321 202.465 27.6975 199.07 28.3765C198.103 31.8539 197.465 33.9012 197.157 34.5185C196.868 35.1358 196.611 35.4444 196.385 35.4444ZM206.478 18.4691C206.478 17.8107 206.241 17.2757 205.768 16.8642C205.294 16.4321 204.657 16.216 203.854 16.216C203.052 16.216 201.94 16.5967 200.521 17.358C200.932 18.0782 201.138 18.7263 201.138 19.3025C201.138 20.4342 200.84 22.1111 200.243 24.3333C202.095 23.5926 203.597 22.7078 204.749 21.679C205.901 20.6296 206.478 19.5597 206.478 18.4691ZM223.849 26.8642C224.219 27.1934 224.404 27.4918 224.404 27.7593C224.404 28.0267 224.281 28.5823 224.034 29.4259C223.787 30.2695 223.622 30.928 223.54 31.4012C223.458 31.8539 223.386 32.214 223.324 32.4815C223.283 32.749 223.252 32.965 223.231 33.1296C223.211 33.2737 223.17 33.4588 223.108 33.6852C223.067 33.9115 223.026 34.0967 222.985 34.2407C222.964 34.3642 222.923 34.5185 222.861 34.7037C222.82 34.8683 222.769 35.0021 222.707 35.1049C222.645 35.1872 222.573 35.2798 222.491 35.3827C222.367 35.5473 222.162 35.6296 221.873 35.6296C221.585 35.6296 221.225 35.3416 220.793 34.7654C220.382 34.1893 220.073 33.4897 219.867 32.6667C217.933 34.642 216.308 35.6296 214.991 35.6296C214.106 35.6296 213.149 35.1461 212.12 34.179C211.092 33.1914 210.577 32.214 210.577 31.2469C210.577 30.2593 211.02 28.8601 211.904 27.0494C212.789 25.2387 213.993 23.5617 215.515 22.0185C217.059 20.4753 218.581 19.7037 220.083 19.7037C220.948 19.7037 221.945 20.2078 223.077 21.216C224.209 22.2243 224.775 23.1502 224.775 23.9938C224.775 24.8169 224.466 25.7737 223.849 26.8642ZM214.867 31.7407C215.69 31.7407 216.781 31.1852 218.139 30.0741C219.517 28.9424 220.371 27.5226 220.701 25.8148C220.721 25.5679 220.896 25.4239 221.225 25.3827C221.164 24.2099 220.968 23.6235 220.639 23.6235C219.816 23.6235 218.89 24.1584 217.861 25.2284C216.853 26.2984 216.02 27.4403 215.361 28.6543C214.723 29.8683 214.404 30.7634 214.404 31.3395C214.404 31.5041 214.425 31.6173 214.466 31.679C214.528 31.7202 214.662 31.7407 214.867 31.7407ZM228.163 24.9198L227.977 21.4321C227.977 20.2798 228.337 19.7037 229.058 19.7037C229.469 19.7037 229.87 19.858 230.261 20.1667C230.673 20.4753 230.981 20.9588 231.187 21.6173C231.887 21 232.648 20.5062 233.471 20.1358C234.315 19.7449 235.056 19.5494 235.693 19.5494C237.195 19.5494 237.946 19.9095 237.946 20.6296C237.946 21 237.874 21.2778 237.73 21.463C237.607 21.6276 237.504 21.751 237.422 21.8333C237.36 21.9156 237.237 22.0288 237.051 22.1728C236.887 22.2963 236.763 22.3889 236.681 22.4506C236.208 22.7593 235.868 22.9753 235.663 23.0988C234.737 23.6749 233.944 24.3745 233.286 25.1975C232.628 26 232.134 27.1214 231.804 28.5617C231.249 30.928 230.704 32.6975 230.169 33.8704C229.654 35.0226 229.068 35.5988 228.409 35.5988C227.772 35.5988 227.288 35.2901 226.959 34.6728C226.65 34.0556 226.496 33.4794 226.496 32.9444C226.496 32.3889 226.691 31.5658 227.082 30.4753C227.494 29.3848 227.772 28.4486 227.916 27.6667C228.08 26.8642 228.163 25.9486 228.163 24.9198ZM250.765 26.8642C251.135 27.1934 251.32 27.4918 251.32 27.7593C251.32 28.0267 251.197 28.5823 250.95 29.4259C250.703 30.2695 250.538 30.928 250.456 31.4012C250.374 31.8539 250.302 32.214 250.24 32.4815C250.199 32.749 250.168 32.965 250.147 33.1296C250.127 33.2737 250.086 33.4588 250.024 33.6852C249.983 33.9115 249.941 34.0967 249.9 34.2407C249.88 34.3642 249.839 34.5185 249.777 34.7037C249.736 34.8683 249.684 35.0021 249.623 35.1049C249.561 35.1872 249.489 35.2798 249.406 35.3827C249.283 35.5473 249.077 35.6296 248.789 35.6296C248.501 35.6296 248.141 35.3416 247.709 34.7654C247.297 34.1893 246.989 33.4897 246.783 32.6667C244.849 34.642 243.223 35.6296 241.906 35.6296C241.022 35.6296 240.065 35.1461 239.036 34.179C238.007 33.1914 237.493 32.214 237.493 31.2469C237.493 30.2593 237.935 28.8601 238.82 27.0494C239.705 25.2387 240.909 23.5617 242.431 22.0185C243.974 20.4753 245.497 19.7037 246.999 19.7037C247.863 19.7037 248.861 20.2078 249.993 21.216C251.125 22.2243 251.69 23.1502 251.69 23.9938C251.69 24.8169 251.382 25.7737 250.765 26.8642ZM241.783 31.7407C242.606 31.7407 243.697 31.1852 245.055 30.0741C246.433 28.9424 247.287 27.5226 247.616 25.8148C247.637 25.5679 247.812 25.4239 248.141 25.3827C248.079 24.2099 247.884 23.6235 247.555 23.6235C246.732 23.6235 245.806 24.1584 244.777 25.2284C243.769 26.2984 242.935 27.4403 242.277 28.6543C241.639 29.8683 241.32 30.7634 241.32 31.3395C241.32 31.5041 241.341 31.6173 241.382 31.679C241.444 31.7202 241.577 31.7407 241.783 31.7407ZM266.56 11.0617C267.054 11.0617 267.702 11.5144 268.504 12.4198C269.307 13.3045 269.708 14.1379 269.708 14.9198C269.708 15.3107 269.348 16.9362 268.628 19.7963C267.907 22.6564 267.475 24.3848 267.331 24.9815C265.685 32.0802 264.482 35.6296 263.72 35.6296C263.288 35.6296 262.805 35.3724 262.27 34.858C261.735 34.3436 261.467 33.8395 261.467 33.3457C261.467 33.2428 261.477 33.1605 261.498 33.0988C259.44 34.786 257.959 35.6296 257.054 35.6296C256.169 35.6296 255.305 35.1564 254.461 34.2099C253.638 33.2428 253.226 32.3683 253.226 31.5864C253.226 30.8045 253.329 29.9403 253.535 28.9938C253.761 28.0267 254.101 27.0082 254.554 25.9383C255.006 24.8683 255.521 23.8704 256.097 22.9444C256.693 21.9979 257.403 21.2263 258.226 20.6296C259.07 20.0123 259.934 19.7037 260.819 19.7037C262.136 19.7037 263.216 20.3724 264.06 21.7099C265.171 16.8333 265.706 13.5926 265.665 11.9877C265.665 11.3704 265.963 11.0617 266.56 11.0617ZM257.455 31.7099C257.969 31.7099 258.833 31.2675 260.047 30.3827C261.282 29.4979 262.198 28.3765 262.794 27.0185C262.774 26.8539 262.763 26.4938 262.763 25.9383C262.763 25.3827 262.578 24.858 262.208 24.3642C261.838 23.8704 261.498 23.6235 261.189 23.6235C260.572 23.6235 259.975 23.9527 259.399 24.6111C258.844 25.2695 258.401 26.0514 258.072 26.9568C257.373 28.8704 257.023 30.321 257.023 31.3086C257.023 31.4733 257.043 31.5864 257.084 31.6481C257.146 31.6893 257.27 31.7099 257.455 31.7099ZM273.043 15.8457C273.043 15.3107 273.28 14.7654 273.753 14.2099C274.247 13.6337 274.72 13.3457 275.173 13.3457C275.646 13.3457 276.202 13.9012 276.839 15.0123C277.477 16.1235 277.796 16.9362 277.796 17.4506C277.796 17.9444 277.632 18.3251 277.302 18.5926C276.973 18.8601 276.634 18.9938 276.284 18.9938C275.687 18.9938 274.998 18.6029 274.216 17.821C273.434 17.0391 273.043 16.3807 273.043 15.8457ZM273.506 19.7037C274.226 19.7037 274.864 20.1152 275.42 20.9383C275.996 21.7613 276.284 22.5535 276.284 23.3148C276.284 23.7058 275.924 25.1152 275.204 27.5432C274.504 29.9506 273.804 32.2346 273.105 34.3951C272.858 35.1975 272.354 35.5988 271.593 35.5988C271.14 35.5988 270.739 35.4342 270.389 35.1049C270.06 34.7551 269.895 34.3128 269.895 33.7778C269.895 33.2222 270.152 31.8642 270.667 29.7037C271.202 27.5226 271.603 25.6708 271.87 24.1481C272.158 22.6049 272.416 21.4835 272.642 20.784C272.889 20.0638 273.177 19.7037 273.506 19.7037ZM287.882 19.7346C288.663 19.7346 289.435 20.1975 290.196 21.1235C290.958 22.0494 291.338 22.8827 291.338 23.6235C291.338 24.1173 291.122 24.3642 290.69 24.3642C290.443 24.3642 290.083 24.2716 289.61 24.0864C289.137 23.8807 288.653 23.7778 288.159 23.7778C287.686 23.7778 286.976 23.9424 286.03 24.2716C285.104 24.6008 284.641 25.0329 284.641 25.5679C284.641 25.7737 284.919 26.072 285.474 26.463C286.03 26.8539 286.637 27.2551 287.295 27.6667C287.954 28.0782 288.561 28.6543 289.116 29.3951C289.672 30.1152 289.949 30.9074 289.949 31.7716C289.949 32.6152 289.322 33.4691 288.067 34.3333C286.832 35.1975 285.371 35.6296 283.684 35.6296C282.017 35.6296 280.587 35.249 279.394 34.4877C278.201 33.7263 277.604 32.9444 277.604 32.142C277.604 31.3395 277.933 30.9383 278.591 30.9383C278.859 30.9383 279.178 31.0412 279.548 31.2469C280.577 31.8436 281.853 32.142 283.375 32.142C284.919 32.142 285.69 31.9362 285.69 31.5247C285.69 31.1132 285.392 30.6605 284.795 30.1667C284.219 29.6523 283.581 29.179 282.882 28.7469C282.203 28.3148 281.565 27.7901 280.968 27.1728C280.392 26.535 280.104 25.9177 280.104 25.321C280.104 24.2099 281.112 23.0062 283.129 21.7099C285.145 20.393 286.729 19.7346 287.882 19.7346ZM306.27 25.4753C306.27 26.4835 305.581 27.3889 304.202 28.1914C302.844 28.9938 301.445 29.3951 300.005 29.3951C298.565 29.3951 297.382 29.2922 296.456 29.0864C296.27 29.642 296.178 30.1975 296.178 30.7531C296.178 31.3086 296.27 31.7099 296.456 31.9568C296.641 32.1831 297.104 32.2963 297.844 32.2963C299.388 32.2963 300.705 32.1523 301.795 31.8642C302.906 31.5761 303.482 31.4321 303.523 31.4321C304.367 31.4321 304.789 31.7099 304.789 32.2654C304.789 33.0679 304.12 33.8292 302.783 34.5494C301.466 35.2695 299.933 35.6296 298.184 35.6296C296.456 35.6296 295.067 35.0844 294.017 33.9938C292.968 32.9033 292.443 31.6173 292.443 30.1358C292.443 28.6337 292.875 27.07 293.74 25.4444C294.624 23.8189 295.725 22.4609 297.042 21.3704C298.359 20.2593 299.665 19.7037 300.962 19.7037C302.279 19.7037 303.493 20.3519 304.604 21.6481C305.715 22.9239 306.27 24.1996 306.27 25.4753ZM302.69 24.9815C302.69 24.7757 302.474 24.4774 302.042 24.0864C301.61 23.6955 301.198 23.5 300.807 23.5C300.437 23.5 299.954 23.7778 299.357 24.3333C298.76 24.8683 298.194 25.5679 297.659 26.4321C297.844 26.4527 298.112 26.463 298.462 26.463C301.281 26.463 302.69 25.9691 302.69 24.9815Z" fill="#FAFAFA"/>
</svg>
