<svg width="224" height="31" viewBox="0 0 224 31" fill="none" xmlns="http://www.w3.org/2000/svg">
<path d="M14.663 3.33709C14.663 2.66714 14.9292 2.02463 15.4029 1.5509C15.8766 1.07717 16.5191 0.811035 17.1891 0.811035C17.859 0.811035 18.5016 1.07717 18.9753 1.5509C19.449 2.02463 19.7152 2.66714 19.7152 3.33709C19.7152 4.00704 19.449 4.64955 18.9753 5.12328C18.5016 5.597 17.859 5.86314 17.1891 5.86314C16.5191 5.86314 15.8766 5.597 15.4029 5.12328C14.9292 4.64955 14.663 4.00704 14.663 3.33709ZM18.6627 24.0754C18.6627 24.0754 16.1483 26.7736 13.3231 26.7736L13.3623 23.9036C13.3623 23.9036 8.15881 24.5009 6.7462 23.0883L13.5803 20.8759C13.4181 20.6511 13.3307 20.3811 13.3305 20.1039V16.8299C13.3305 16.492 13.4582 16.1674 13.689 15.9204L15.622 13.8491V9.23168L13.272 10.0149L11.345 13.5732C11.2783 13.6965 11.188 13.8054 11.0792 13.8937C10.9704 13.982 10.8453 14.048 10.711 14.0879C10.5766 14.1278 10.4358 14.1408 10.2964 14.1262C10.157 14.1115 10.0219 14.0695 9.89882 14.0026C9.6503 13.8679 9.46545 13.64 9.38494 13.369C9.30442 13.098 9.33483 12.8061 9.46946 12.5575L11.5979 8.62875C11.7266 8.39075 11.941 8.21064 12.1977 8.12495C12.1977 8.12495 16.8398 6.59697 16.9548 6.59697H21.5201L25.1321 3.98271C25.3614 3.82392 25.6438 3.7613 25.9188 3.80829C26.1938 3.85528 26.4394 4.00814 26.603 4.23409C26.7666 4.46004 26.8352 4.7411 26.794 5.017C26.7528 5.2929 26.6052 5.54169 26.3827 5.71003L22.491 8.52679C22.3089 8.65833 22.0901 8.72918 21.8655 8.72929H19.8002V12.7466L22.5496 12.964C22.7591 12.9806 22.9618 13.0465 23.141 13.1564C23.3202 13.2663 23.4709 13.417 23.5808 13.5962L25.7428 17.1249L34.9293 14.2923C34.9297 14.293 34.8358 20.1516 18.6627 24.0754ZM23.1137 17.9363L21.6626 15.568C21.6626 15.568 18.1032 15.2614 17.9836 15.2145C17.9642 15.2374 17.9494 15.2628 17.9296 15.2847L15.9966 17.356V20.1046C15.9966 20.1138 15.9942 20.1226 15.9942 20.1322L23.1137 17.9363ZM33.909 24.721C31.7668 24.721 30.6513 25.7223 29.7548 26.5256C29.0026 27.2002 28.5077 27.6454 27.3893 27.6454C26.2744 27.6454 25.7777 27.2002 25.0255 26.5256C24.129 25.7223 23.0138 24.721 20.8716 24.721C18.7277 24.721 17.6125 25.7223 16.7156 26.5256C15.9649 27.2002 15.4685 27.6454 14.3519 27.6454C13.2335 27.6454 12.7371 27.2002 11.9867 26.5256C11.0899 25.7219 9.97468 24.721 7.8307 24.721C5.6885 24.721 4.57153 25.7219 3.67648 26.5256C2.9243 27.2002 2.42791 27.6454 1.30989 27.6454C0.959746 27.6534 0.62665 27.7982 0.381854 28.0487C0.137057 28.2991 0 28.6355 0 28.9857C0 29.3359 0.137057 29.6723 0.381854 29.9227C0.62665 30.1732 0.959746 30.318 1.30989 30.326C3.45386 30.326 4.56906 29.3254 5.46553 28.5214C6.2177 27.8472 6.71444 27.402 7.83106 27.402C8.94767 27.402 9.44583 27.8472 10.1966 28.5214C11.0934 29.3254 12.21 30.326 14.3522 30.326C16.4944 30.326 17.6096 29.3254 18.5065 28.5214C19.259 27.8472 19.755 27.402 20.872 27.402C21.9882 27.402 22.485 27.8472 23.2354 28.5214C24.1326 29.3254 25.2474 30.326 27.3896 30.326C29.5336 30.326 30.6488 29.3254 31.5453 28.5214C32.296 27.8472 32.7928 27.402 33.9094 27.402C34.2649 27.4019 34.6058 27.2607 34.8572 27.0092C35.1085 26.7578 35.2497 26.4168 35.2497 26.0613C35.2496 25.7058 35.1084 25.3649 34.8569 25.1135C34.6055 24.8622 34.2645 24.721 33.909 24.721Z" fill="url(#paint0_linear_442_1191)"/>
<path d="M64.2121 22.0568C64.2121 23.33 63.6054 24.4235 62.3921 25.3373C61.1788 26.251 59.7932 26.7079 58.2353 26.7079C56.6774 26.7079 55.4192 26.3259 54.4605 25.562C53.5168 24.783 53.0449 23.9816 53.0449 23.1578C53.0449 22.3339 53.2771 21.922 53.7415 21.922C54.101 21.922 54.4755 22.1017 54.8649 22.4612C55.2544 22.8207 55.6888 23.1802 56.1681 23.5398C56.6625 23.8993 57.2167 24.079 57.8309 24.079C58.445 24.079 59.1416 23.8244 59.9205 23.3151C60.6994 22.8058 61.0889 22.3788 61.0889 22.0343C61.0889 21.6898 60.662 21.1131 59.8081 20.3042C58.9693 19.4953 58.123 18.6639 57.2691 17.8101C56.4303 16.9413 56.0109 16.2747 56.0109 15.8104C56.0109 15.331 56.0933 14.8142 56.258 14.26C56.4378 13.7058 56.655 13.3238 56.9096 13.1141C57.7185 12.3202 58.7596 11.6386 60.0328 11.0694C61.3211 10.4852 62.452 10.1931 63.4257 10.1931C63.9949 10.1931 64.4668 10.4402 64.8412 10.9346C65.2157 11.4139 65.403 11.9157 65.403 12.44C65.403 12.6497 65.2307 12.822 64.8862 12.9568C64.5566 13.0766 64.0698 13.2039 63.4257 13.3388C62.7965 13.4736 62.1524 13.6683 61.4933 13.923C59.9654 14.4922 59.2015 14.9715 59.2015 15.361C59.2015 15.5407 59.4636 15.8703 59.9879 16.3496C60.5122 16.814 61.0814 17.3083 61.6956 17.8326C62.3247 18.3419 62.9014 18.9935 63.4257 19.7874C63.95 20.5663 64.2121 21.3228 64.2121 22.0568ZM73.8459 15.698C73.9658 15.3235 74.2054 15.1363 74.5649 15.1363C74.9244 15.1363 75.3364 15.4434 75.8007 16.0575C76.2801 16.6717 76.5197 17.2035 76.5197 17.6528C76.5197 17.8176 76.1752 18.9186 75.4862 20.9558C74.7971 22.993 74.2653 24.6033 73.8909 25.7867C73.6811 26.4158 73.3291 26.7304 72.8348 26.7304C72.5352 26.7304 72.2806 26.6255 72.0709 26.4158C71.8761 26.1911 71.7788 25.8466 71.7788 25.3822C71.7788 24.9179 71.8686 24.2588 72.0484 23.4049C70.5055 25.6219 69.2772 26.7304 68.3634 26.7304C67.8841 26.7304 67.3074 26.4233 66.6333 25.8091C65.9593 25.18 65.6222 24.5733 65.6222 23.9891C65.6222 22.5511 66.0267 20.7161 66.8355 18.4842C67.6594 16.2523 68.4309 15.1363 69.1499 15.1363C69.5843 15.1363 69.9662 15.331 70.2958 15.7205C70.6403 16.11 70.8126 16.5369 70.8126 17.0012C70.8126 17.181 70.6253 17.6828 70.2509 18.5067C69.1124 20.9783 68.5432 22.7234 68.5432 23.742C68.5432 23.8319 68.5806 23.8768 68.6555 23.8768C68.8802 23.8768 69.2997 23.5248 69.9138 22.8207C70.543 22.1017 71.2395 21.0831 72.0034 19.7649C72.7824 18.4318 73.3965 17.0761 73.8459 15.698ZM78.1224 18.9336L77.9876 16.3946C77.9876 15.5557 78.2498 15.1363 78.774 15.1363C79.0736 15.1363 79.3657 15.2486 79.6503 15.4733C79.9499 15.698 80.1746 16.05 80.3244 16.5294C80.8337 16.08 81.3879 15.7205 81.9871 15.4509C82.6013 15.1663 83.1405 15.0239 83.6049 15.0239C84.6984 15.0239 85.2451 15.2861 85.2451 15.8104C85.2451 16.08 85.1927 16.2822 85.0879 16.417C84.998 16.5369 84.9231 16.6267 84.8632 16.6867C84.8182 16.7466 84.7284 16.829 84.5935 16.9338C84.4737 17.0237 84.3838 17.0911 84.3239 17.136C83.9794 17.3607 83.7322 17.518 83.5824 17.6079C82.9084 18.0273 82.3316 18.5366 81.8523 19.1358C81.373 19.72 81.0135 20.5364 80.7738 21.5849C80.3693 23.3076 79.9724 24.5958 79.5829 25.4496C79.2084 26.2885 78.7815 26.7079 78.3022 26.7079C77.8378 26.7079 77.4858 26.4832 77.2461 26.0338C77.0214 25.5844 76.9091 25.165 76.9091 24.7756C76.9091 24.3711 77.0514 23.7719 77.336 22.978C77.6356 22.1841 77.8378 21.5026 77.9427 20.9333C78.0625 20.3491 78.1224 19.6826 78.1224 18.9336ZM93.7229 13.3388C93.6629 12.9942 93.5656 12.6797 93.4308 12.3951C93.2959 12.1105 93.1312 11.9681 92.9364 11.9681C92.7567 11.9681 92.5694 12.103 92.3747 12.3726C92.195 12.6422 92.0152 13.0841 91.8354 13.6983C91.5508 14.657 91.2662 15.7729 90.9816 17.0462C92.1201 16.9863 92.9739 16.9563 93.5431 16.9563C94.1273 16.9563 94.5617 17.0462 94.8463 17.2259C95.1309 17.3907 95.2732 17.5929 95.2732 17.8326C95.2732 18.297 94.8538 18.6565 94.015 18.9111C93.1761 19.1658 91.9628 19.4129 90.375 19.6526C89.626 22.7833 89.1017 24.7456 88.8021 25.5395C88.5025 26.3184 88.173 26.7079 87.8135 26.7079C87.5289 26.7079 87.1918 26.4757 86.8024 26.0114C86.4279 25.532 86.2406 25.1725 86.2406 24.9328C86.2406 24.6932 86.2931 24.4086 86.3979 24.079C86.8623 22.7758 87.2143 21.5175 87.454 20.3042C87.0046 20.424 86.6001 20.4839 86.2406 20.4839C85.8961 20.4839 85.5516 20.3267 85.2071 20.0121C84.8625 19.6826 84.6903 19.2856 84.6903 18.8212C84.6903 18.282 85.7688 17.8176 87.9258 17.4281C88.3602 14.5521 88.9669 12.47 89.7458 11.1817C90.5247 9.87852 91.6482 9.22691 93.1162 9.22691C93.8202 9.22691 94.4643 9.57144 95.0485 10.2605C95.6327 10.9495 95.9248 11.7659 95.9248 12.7096C95.9248 13.3238 95.8275 13.8106 95.6327 14.1701C95.438 14.5146 95.1833 14.6869 94.8688 14.6869C94.5542 14.6869 94.2996 14.5446 94.1048 14.26C93.9251 13.9754 93.7978 13.6683 93.7229 13.3388ZM104.858 19.338C104.858 20.072 104.356 20.7311 103.352 21.3153C102.364 21.8995 101.345 22.1916 100.297 22.1916C99.2481 22.1916 98.3868 22.1167 97.7127 21.9669C97.5779 22.3714 97.5105 22.7758 97.5105 23.1802C97.5105 23.5847 97.5779 23.8768 97.7127 24.0565C97.8475 24.2213 98.1846 24.3037 98.7238 24.3037C99.8473 24.3037 100.806 24.1988 101.6 23.9891C102.409 23.7794 102.828 23.6746 102.858 23.6746C103.472 23.6746 103.779 23.8768 103.779 24.2812C103.779 24.8654 103.293 25.4197 102.319 25.944C101.36 26.4682 100.244 26.7304 98.971 26.7304C97.7127 26.7304 96.7016 26.3334 95.9376 25.5395C95.1737 24.7456 94.7917 23.8094 94.7917 22.7309C94.7917 21.6374 95.1063 20.4989 95.7354 19.3156C96.3795 18.1322 97.1809 17.1435 98.1396 16.3496C99.0983 15.5407 100.049 15.1363 100.993 15.1363C101.952 15.1363 102.836 15.6081 103.645 16.5519C104.453 17.4806 104.858 18.4093 104.858 19.338ZM102.251 18.9785C102.251 18.8287 102.094 18.6115 101.78 18.3269C101.465 18.0423 101.165 17.9 100.881 17.9C100.611 17.9 100.259 18.1022 99.8248 18.5067C99.3904 18.8961 98.9785 19.4054 98.589 20.0346C98.7238 20.0495 98.9185 20.057 99.1732 20.057C101.225 20.057 102.251 19.6975 102.251 18.9785ZM106.999 18.9336L106.864 16.3946C106.864 15.5557 107.126 15.1363 107.65 15.1363C107.95 15.1363 108.242 15.2486 108.527 15.4733C108.826 15.698 109.051 16.05 109.201 16.5294C109.71 16.08 110.264 15.7205 110.863 15.4509C111.478 15.1663 112.017 15.0239 112.481 15.0239C113.575 15.0239 114.121 15.2861 114.121 15.8104C114.121 16.08 114.069 16.2822 113.964 16.417C113.874 16.5369 113.799 16.6267 113.74 16.6867C113.695 16.7466 113.605 16.829 113.47 16.9338C113.35 17.0237 113.26 17.0911 113.2 17.136C112.856 17.3607 112.609 17.518 112.459 17.6079C111.785 18.0273 111.208 18.5366 110.729 19.1358C110.249 19.72 109.89 20.5364 109.65 21.5849C109.246 23.3076 108.849 24.5958 108.459 25.4496C108.085 26.2885 107.658 26.7079 107.179 26.7079C106.714 26.7079 106.362 26.4832 106.122 26.0338C105.898 25.5844 105.785 25.165 105.785 24.7756C105.785 24.3711 105.928 23.7719 106.212 22.978C106.512 22.1841 106.714 21.5026 106.819 20.9333C106.939 20.3491 106.999 19.6826 106.999 18.9336ZM116.892 7.18222C117.671 7.18222 118.308 7.45934 118.802 8.01358C119.311 8.56782 119.566 9.31679 119.566 10.2605C119.566 11.2042 119.139 12.2528 118.285 13.4062C117.446 14.5596 116.675 15.1363 115.971 15.1363C115.267 15.1363 114.915 14.8367 114.915 14.2375C114.915 13.9679 115.192 13.4511 115.746 12.6872C116.3 11.9082 116.577 11.2641 116.577 10.7548C116.577 10.2305 116.375 9.80362 115.971 9.47407C115.566 9.14452 115.364 8.82996 115.364 8.53037C115.364 8.23078 115.521 7.93119 115.836 7.6316C116.151 7.33201 116.503 7.18222 116.892 7.18222ZM128.971 15.1588C129.54 15.1588 130.102 15.4958 130.656 16.1699C131.21 16.8439 131.487 17.4506 131.487 17.9899C131.487 18.3494 131.33 18.5291 131.015 18.5291C130.836 18.5291 130.573 18.4617 130.229 18.3269C129.884 18.1771 129.532 18.1022 129.173 18.1022C128.828 18.1022 128.312 18.2221 127.622 18.4617C126.948 18.7014 126.611 19.016 126.611 19.4054C126.611 19.5552 126.814 19.7724 127.218 20.057C127.622 20.3416 128.064 20.6337 128.544 20.9333C129.023 21.2329 129.465 21.6523 129.869 22.1916C130.274 22.7159 130.476 23.2926 130.476 23.9217C130.476 24.5359 130.019 25.1575 129.105 25.7867C128.207 26.4158 127.143 26.7304 125.915 26.7304C124.701 26.7304 123.66 26.4533 122.792 25.899C121.923 25.3448 121.488 24.7756 121.488 24.1914C121.488 23.6072 121.728 23.3151 122.207 23.3151C122.402 23.3151 122.634 23.39 122.904 23.5398C123.653 23.9742 124.582 24.1914 125.69 24.1914C126.814 24.1914 127.375 24.0416 127.375 23.742C127.375 23.4424 127.158 23.1128 126.724 22.7533C126.304 22.3788 125.84 22.0343 125.331 21.7198C124.836 21.4052 124.372 21.0232 123.938 20.5738C123.518 20.1095 123.308 19.6601 123.308 19.2257C123.308 18.4168 124.042 17.5405 125.51 16.5968C126.978 15.6381 128.132 15.1588 128.971 15.1588ZM142.824 26.5956C142.48 26.5956 142.068 26.3109 141.588 25.7417C141.109 25.1575 140.869 24.6857 140.869 24.3262C140.869 23.9667 141.049 23.2252 141.409 22.1017C142.517 18.6565 143.109 15.6381 143.184 13.0467C142.674 12.5074 142.42 12.0805 142.42 11.7659C142.42 11.2716 143.004 10.8072 144.172 10.3728C145.356 9.92346 146.479 9.69876 147.543 9.69876C149.34 9.69876 150.756 10.1182 151.789 10.957C152.838 11.7959 153.362 12.8669 153.362 14.1701C153.362 15.8328 152.546 17.3383 150.913 18.6864C149.295 20.0346 147.251 20.9558 144.779 21.4501C144.075 23.9816 143.611 25.4721 143.386 25.9215C143.176 26.3709 142.989 26.5956 142.824 26.5956ZM150.172 14.2375C150.172 13.7582 149.999 13.3687 149.655 13.0691C149.31 12.7546 148.846 12.5973 148.262 12.5973C147.678 12.5973 146.869 12.8744 145.835 13.4286C146.135 13.9529 146.284 14.4248 146.284 14.8442C146.284 15.6681 146.067 16.8889 145.633 18.5067C146.981 17.9674 148.075 17.3233 148.913 16.5743C149.752 15.8104 150.172 15.0314 150.172 14.2375ZM162.818 20.3491C163.088 20.5888 163.222 20.806 163.222 21.0007C163.222 21.1955 163.132 21.5999 162.953 22.2141C162.773 22.8282 162.653 23.3076 162.593 23.6521C162.533 23.9816 162.481 24.2438 162.436 24.4385C162.406 24.6333 162.384 24.7905 162.369 24.9104C162.354 25.0152 162.324 25.15 162.279 25.3148C162.249 25.4796 162.219 25.6144 162.189 25.7193C162.174 25.8091 162.144 25.9215 162.099 26.0563C162.069 26.1761 162.031 26.2735 161.987 26.3484C161.942 26.4083 161.889 26.4757 161.829 26.5506C161.739 26.6705 161.59 26.7304 161.38 26.7304C161.17 26.7304 160.908 26.5207 160.593 26.1012C160.294 25.6818 160.069 25.1725 159.919 24.5733C158.511 26.0114 157.328 26.7304 156.369 26.7304C155.725 26.7304 155.029 26.3784 154.28 25.6743C153.531 24.9553 153.156 24.2438 153.156 23.5398C153.156 22.8207 153.478 21.8021 154.122 20.4839C154.766 19.1658 155.643 17.9449 156.751 16.8215C157.875 15.698 158.983 15.1363 160.077 15.1363C160.706 15.1363 161.432 15.5033 162.256 16.2373C163.08 16.9713 163.492 17.6453 163.492 18.2595C163.492 18.8587 163.267 19.5552 162.818 20.3491ZM156.279 23.8993C156.879 23.8993 157.672 23.4948 158.661 22.6859C159.665 21.8621 160.286 20.8285 160.526 19.5852C160.541 19.4054 160.668 19.3006 160.908 19.2706C160.863 18.4168 160.721 17.9899 160.481 17.9899C159.882 17.9899 159.208 18.3793 158.459 19.1583C157.725 19.9372 157.118 20.7686 156.639 21.6523C156.175 22.5361 155.942 23.1877 155.942 23.6072C155.942 23.727 155.957 23.8094 155.987 23.8543C156.032 23.8843 156.13 23.8993 156.279 23.8993ZM165.958 18.9336L165.824 16.3946C165.824 15.5557 166.086 15.1363 166.61 15.1363C166.91 15.1363 167.202 15.2486 167.486 15.4733C167.786 15.698 168.011 16.05 168.16 16.5294C168.67 16.08 169.224 15.7205 169.823 15.4509C170.437 15.1663 170.976 15.0239 171.441 15.0239C172.534 15.0239 173.081 15.2861 173.081 15.8104C173.081 16.08 173.029 16.2822 172.924 16.417C172.834 16.5369 172.759 16.6267 172.699 16.6867C172.654 16.7466 172.564 16.829 172.429 16.9338C172.31 17.0237 172.22 17.0911 172.16 17.136C171.815 17.3607 171.568 17.518 171.418 17.6079C170.744 18.0273 170.168 18.5366 169.688 19.1358C169.209 19.72 168.849 20.5364 168.61 21.5849C168.205 23.3076 167.808 24.5958 167.419 25.4496C167.044 26.2885 166.617 26.7079 166.138 26.7079C165.674 26.7079 165.322 26.4832 165.082 26.0338C164.857 25.5844 164.745 25.165 164.745 24.7756C164.745 24.3711 164.887 23.7719 165.172 22.978C165.471 22.1841 165.674 21.5026 165.779 20.9333C165.898 20.3491 165.958 19.6826 165.958 18.9336ZM182.413 20.3491C182.682 20.5888 182.817 20.806 182.817 21.0007C182.817 21.1955 182.727 21.5999 182.547 22.2141C182.368 22.8282 182.248 23.3076 182.188 23.6521C182.128 23.9816 182.076 24.2438 182.031 24.4385C182.001 24.6333 181.978 24.7905 181.963 24.9104C181.948 25.0152 181.918 25.15 181.873 25.3148C181.843 25.4796 181.813 25.6144 181.783 25.7193C181.768 25.8091 181.738 25.9215 181.694 26.0563C181.664 26.1761 181.626 26.2735 181.581 26.3484C181.536 26.4083 181.484 26.4757 181.424 26.5506C181.334 26.6705 181.184 26.7304 180.975 26.7304C180.765 26.7304 180.503 26.5207 180.188 26.1012C179.889 25.6818 179.664 25.1725 179.514 24.5733C178.106 26.0114 176.923 26.7304 175.964 26.7304C175.32 26.7304 174.623 26.3784 173.874 25.6743C173.125 24.9553 172.751 24.2438 172.751 23.5398C172.751 22.8207 173.073 21.8021 173.717 20.4839C174.361 19.1658 175.237 17.9449 176.346 16.8215C177.469 15.698 178.578 15.1363 179.671 15.1363C180.3 15.1363 181.027 15.5033 181.851 16.2373C182.675 16.9713 183.087 17.6453 183.087 18.2595C183.087 18.8587 182.862 19.5552 182.413 20.3491ZM175.874 23.8993C176.473 23.8993 177.267 23.4948 178.256 22.6859C179.259 21.8621 179.881 20.8285 180.121 19.5852C180.136 19.4054 180.263 19.3006 180.503 19.2706C180.458 18.4168 180.315 17.9899 180.076 17.9899C179.477 17.9899 178.803 18.3793 178.054 19.1583C177.32 19.9372 176.713 20.7686 176.234 21.6523C175.769 22.5361 175.537 23.1877 175.537 23.6072C175.537 23.727 175.552 23.8094 175.582 23.8543C175.627 23.8843 175.724 23.8993 175.874 23.8993ZM193.912 8.84494C194.271 8.84494 194.743 9.17448 195.327 9.83358C195.911 10.4777 196.203 11.0844 196.203 11.6536C196.203 11.9382 195.941 13.1216 195.417 15.2037C194.893 17.2858 194.578 18.5441 194.473 18.9785C193.275 24.1464 192.399 26.7304 191.844 26.7304C191.53 26.7304 191.178 26.5431 190.788 26.1686C190.399 25.7942 190.204 25.4272 190.204 25.0677C190.204 24.9928 190.212 24.9328 190.227 24.8879C188.729 26.1162 187.65 26.7304 186.991 26.7304C186.347 26.7304 185.718 26.3858 185.104 25.6968C184.504 24.9928 184.205 24.3561 184.205 23.7869C184.205 23.2177 184.28 22.5886 184.43 21.8995C184.594 21.1955 184.841 20.454 185.171 19.6751C185.501 18.8961 185.875 18.1696 186.294 17.4956C186.729 16.8065 187.246 16.2448 187.845 15.8104C188.459 15.361 189.088 15.1363 189.732 15.1363C190.691 15.1363 191.477 15.6231 192.092 16.5968C192.9 13.0467 193.29 10.6874 193.26 9.51901C193.26 9.06963 193.477 8.84494 193.912 8.84494ZM187.283 23.8768C187.658 23.8768 188.287 23.5547 189.171 22.9106C190.069 22.2665 190.736 21.4501 191.17 20.4615C191.155 20.3416 191.148 20.0795 191.148 19.6751C191.148 19.2706 191.013 18.8886 190.743 18.5291C190.474 18.1696 190.227 17.9899 190.002 17.9899C189.553 17.9899 189.118 18.2295 188.699 18.7089C188.294 19.1882 187.972 19.7574 187.732 20.4165C187.223 21.8096 186.969 22.8657 186.969 23.5847C186.969 23.7045 186.984 23.7869 187.013 23.8319C187.058 23.8618 187.148 23.8768 187.283 23.8768ZM198.631 12.3277C198.631 11.9382 198.804 11.5412 199.148 11.1368C199.508 10.7174 199.852 10.5077 200.182 10.5077C200.526 10.5077 200.931 10.9121 201.395 11.721C201.859 12.5299 202.092 13.1216 202.092 13.496C202.092 13.8556 201.972 14.1327 201.732 14.3274C201.492 14.5221 201.245 14.6195 200.991 14.6195C200.556 14.6195 200.054 14.3349 199.485 13.7657C198.916 13.1965 198.631 12.7171 198.631 12.3277ZM198.968 15.1363C199.493 15.1363 199.957 15.4359 200.362 16.0351C200.781 16.6342 200.991 17.2109 200.991 17.7652C200.991 18.0498 200.729 19.0759 200.204 20.8435C199.695 22.596 199.186 24.2588 198.676 25.8316C198.497 26.4158 198.13 26.7079 197.575 26.7079C197.246 26.7079 196.954 26.5881 196.699 26.3484C196.459 26.0937 196.34 25.7717 196.34 25.3822C196.34 24.9778 196.527 23.9891 196.901 22.4163C197.291 20.8285 197.583 19.4803 197.778 18.3719C197.987 17.2484 198.175 16.432 198.339 15.9227C198.519 15.3984 198.729 15.1363 198.968 15.1363ZM209.434 15.1588C210.003 15.1588 210.565 15.4958 211.119 16.1699C211.673 16.8439 211.95 17.4506 211.95 17.9899C211.95 18.3494 211.793 18.5291 211.479 18.5291C211.299 18.5291 211.037 18.4617 210.692 18.3269C210.348 18.1771 209.996 18.1022 209.636 18.1022C209.292 18.1022 208.775 18.2221 208.086 18.4617C207.412 18.7014 207.075 19.016 207.075 19.4054C207.075 19.5552 207.277 19.7724 207.681 20.057C208.086 20.3416 208.528 20.6337 209.007 20.9333C209.486 21.2329 209.928 21.6523 210.333 22.1916C210.737 22.7159 210.939 23.2926 210.939 23.9217C210.939 24.5359 210.482 25.1575 209.569 25.7867C208.67 26.4158 207.606 26.7304 206.378 26.7304C205.165 26.7304 204.124 26.4533 203.255 25.899C202.386 25.3448 201.952 24.7756 201.952 24.1914C201.952 23.6072 202.191 23.3151 202.671 23.3151C202.865 23.3151 203.098 23.39 203.367 23.5398C204.116 23.9742 205.045 24.1914 206.153 24.1914C207.277 24.1914 207.839 24.0416 207.839 23.742C207.839 23.4424 207.621 23.1128 207.187 22.7533C206.767 22.3788 206.303 22.0343 205.794 21.7198C205.299 21.4052 204.835 21.0232 204.401 20.5738C203.981 20.1095 203.772 19.6601 203.772 19.2257C203.772 18.4168 204.506 17.5405 205.974 16.5968C207.442 15.6381 208.595 15.1588 209.434 15.1588ZM222.821 19.338C222.821 20.072 222.319 20.7311 221.315 21.3153C220.327 21.8995 219.308 22.1916 218.26 22.1916C217.211 22.1916 216.35 22.1167 215.676 21.9669C215.541 22.3714 215.473 22.7758 215.473 23.1802C215.473 23.5847 215.541 23.8768 215.676 24.0565C215.81 24.2213 216.148 24.3037 216.687 24.3037C217.81 24.3037 218.769 24.1988 219.563 23.9891C220.372 23.7794 220.791 23.6746 220.821 23.6746C221.435 23.6746 221.742 23.8768 221.742 24.2812C221.742 24.8654 221.256 25.4197 220.282 25.944C219.323 26.4682 218.207 26.7304 216.934 26.7304C215.676 26.7304 214.665 26.3334 213.901 25.5395C213.137 24.7456 212.755 23.8094 212.755 22.7309C212.755 21.6374 213.069 20.4989 213.698 19.3156C214.343 18.1322 215.144 17.1435 216.103 16.3496C217.061 15.5407 218.012 15.1363 218.956 15.1363C219.915 15.1363 220.799 15.6081 221.608 16.5519C222.416 17.4806 222.821 18.4093 222.821 19.338ZM220.214 18.9785C220.214 18.8287 220.057 18.6115 219.743 18.3269C219.428 18.0423 219.128 17.9 218.844 17.9C218.574 17.9 218.222 18.1022 217.788 18.5067C217.353 18.8961 216.941 19.4054 216.552 20.0346C216.687 20.0495 216.882 20.057 217.136 20.057C219.188 20.057 220.214 19.6975 220.214 18.9785Z" fill="black"/>
<defs>
<linearGradient id="paint0_linear_442_1191" x1="-0.561728" y1="10.8482" x2="41.5679" y2="28.2618" gradientUnits="userSpaceOnUse">
<stop offset="0.215015" stop-color="#008289"/>
<stop offset="1" stop-color="#04DAE5" stop-opacity="0.42"/>
</linearGradient>
</defs>
</svg>
